# xmcd
#
# Track frame offsets:
#	150
#	33307
#	48348
#	67921
#	88039
#	114156
#	140289
#	168013
#	203667
#
# Disc length: 3308 seconds
#
# Revision: 1
# Processed by: cddbd v1.4PL0 Copyright (c) Steve Scherf et al.
# Submitted via: EasyCDDAExtractor 5.0.6
#
DISCID=670cea09
DTITLE=Songs: Ohia - The Magnolia Electric Co
DYEAR=1900
DGENRE=
TTITLE0=Farewell Transmission
TTITLE1=I've Been Riding With The Ghost
TTITLE2=Just Be Simple
TTITLE3=Almost Was Good Enough
TTITLE4=The Old Black Hen
TTITLE5=Peoria Lunch Box Blues
TTITLE6=John Henry Split My Heart
TTITLE7=Hold On Magnolia
TTITLE8=The Big Game Is Every Night
EXTD=
EXTT0=
EXTT1=
EXTT2=
EXTT3=
EXTT4=
EXTT5=
EXTT6=
EXTT7=
EXTT8=
PLAYORDER=
